# xmcd CD database file
#
# Track frame offsets:
#	150
#	29723
#	49252
#	73570
#	94473
#	116275
#	139310
#	157966
#	173115
#	202101
#	223167
#	252648
#	264098
#	290377
#	314773
#	321324
#	342177
#
# Disc length: 4795 seconds
#
# Revision: 0
# Processed by: cddbd v1.5.2PL0 Copyright (c) Steve Scherf et al.
# Submitted via: CDex 1.50
#
DISCID=1312b911
DTITLE=Музакальное сопровождение упражнений ОЗДОРОВИТЕЛЬНОГО КУРСА I-ступени по системе М.С.Норбекова - диск-2 (на два дня в неделю)
DYEAR=1900
DGENRE=New Age
TTITLE0=Гимнастика для глаз
TTITLE1=Пальминг, Ревизия по органам
TTITLE2=Идеомоторный массаж
TTITLE3=Идеомоторный массаж
TTITLE4=Идеомоторный массаж
TTITLE5=Образное дыхание, Ревизия по органам, Создание настроения на упражнение
TTITLE6=Трилистники (Лепестки лотоса) - ТЕПЛО
TTITLE7=Трилистники (Лепестки лотоса) - ПРОХЛАДА
TTITLE8=Шумный город - ТЕПЛО
TTITLE9=Шумный город - ПРОХЛАДА
TTITLE10=Прощение - ДОРОГА ЖИЗНИ
TTITLE11=Прощение - ТЯЖЁЛЫЕ ВОСПОМИНАНИЯ
TTITLE12=Прощение - кинотеатр - ИЗМЕНИТЬ ЧУВСТВА, ОТНОШЕНИЕ
TTITLE13=Прощение - ПРОСИТЬ У ТЕЛА
TTITLE14=Прощение - ЖИЗНЬ ПРЕКРАСНА И ВОСХИТИТЕЛЬНА
TTITLE15=Прощение - КУПОЛ ЛЮБВИ
TTITLE16=Прощение - ПОСЫЛАЯ ЛЮБОВЬ - ОБЪЕДЕНИТЬ ЕЁ
EXTD=
EXTT0=
EXTT1=
EXTT2=
EXTT3=
EXTT4=
EXTT5=
EXTT6=
EXTT7=
EXTT8=
EXTT9=
EXTT10=
EXTT11=
EXTT12=
EXTT13=
EXTT14=
EXTT15=
EXTT16=
PLAYORDER=
